<svg xmlns="http://www.w3.org/2000/svg" viewBox="0 0 1200 675">
<defs>
<linearGradient id="cl" x1="0" y1="0" x2="1" y2="1">
<stop offset="0" stop-color="#0a1220"/><stop offset="1" stop-color="#182a44"/>
</linearGradient>
</defs>
<rect width="1200" height="675" fill="url(#cl)"/>
<g fill="#ffb454" opacity="0.9">
<path d="M 380 380 Q 320 380 320 320 Q 320 250 400 240 Q 420 160 520 160 Q 620 160 640 240 Q 720 220 770 270 Q 830 280 830 340 Q 830 380 780 380 Z"/>
</g>
<g fill="#ffb454" opacity="0.4">
<path d="M 380 380 Q 320 380 320 320 Q 320 250 400 240 Q 420 160 520 160 Q 620 160 640 240 Q 720 220 770 270 Q 830 280 830 340 Q 830 380 780 380 Z" transform="translate(120, 40)"/>
</g>
<g stroke="#8a95a6" stroke-width="3" stroke-dasharray="6 8" fill="none">
<line x1="400" y1="400" x2="400" y2="560"/>
<line x1="600" y1="400" x2="600" y2="560"/>
<line x1="800" y1="400" x2="800" y2="560"/>
</g>
<g fill="#8a95a6">
<rect x="360" y="560" width="80" height="50" rx="8"/>
<rect x="560" y="560" width="80" height="50" rx="8"/>
<rect x="760" y="560" width="80" height="50" rx="8"/>
</g>
<text x="60" y="120" fill="#e9eef5" font-family="Georgia, serif" font-size="72" font-weight="700">Cloud</text>
<text x="60" y="170" fill="#ffb454" font-family="monospace" font-size="18" letter-spacing="4">// AWS, S3, SERVERLESS</text>
</svg>