<svg xmlns="http://www.w3.org/2000/svg" viewBox="0 0 1200 675">
<defs>
<linearGradient id="s" x1="0" y1="0" x2="1" y2="1">
<stop offset="0" stop-color="#080f0a"/><stop offset="1" stop-color="#12281a"/>
</linearGradient>
</defs>
<rect width="1200" height="675" fill="url(#s)"/>
<!-- Щит -->
<g transform="translate(600,340)">
<path d="M 0 -200 L 160 -120 L 160 40 Q 160 180 0 240 Q -160 180 -160 40 L -160 -120 Z" fill="#4ade80" opacity="0.15" stroke="#4ade80" stroke-width="6"/>
<path d="M 0 -200 L 160 -120 L 160 40 Q 160 180 0 240 Q -160 180 -160 40 L -160 -120 Z" fill="none" stroke="#4ade80" stroke-width="6"/>
<!-- Замок -->
<rect x="-60" y="20" width="120" height="100" rx="14" fill="#4ade80"/>
<path d="M -40 20 V -20 Q -40 -70 0 -70 Q 40 -70 40 -20 V 20" fill="none" stroke="#4ade80" stroke-width="14" stroke-linecap="round"/>
<circle cx="0" cy="70" r="10" fill="#080f0a"/>
</g>
<text x="60" y="120" fill="#e9eef5" font-family="Georgia, serif" font-size="88" font-weight="700">HTTPS</text>
<text x="60" y="170" fill="#4ade80" font-family="monospace" font-size="18" letter-spacing="4">// ШИФРОВАНИЕ И TLS</text>
</svg>