<svg xmlns="http://www.w3.org/2000/svg" viewBox="0 0 1200 675">
<defs>
<linearGradient id="bg3" x1="0" y1="0" x2="1" y2="1"><stop offset="0" stop-color="#0a0f14"/><stop offset="1" stop-color="#122030"/></linearGradient>
</defs>
<rect width="1200" height="675" fill="url(#bg3)"/>
<g opacity="0.9">
<rect x="180" y="180" width="260" height="340" rx="14" fill="#12161d" stroke="#ffb454" stroke-width="2" opacity="0.9"/>
<rect x="470" y="140" width="260" height="380" rx="14" fill="#12161d" stroke="#ffb454" stroke-width="2" opacity="0.6"/>
<rect x="760" y="220" width="260" height="300" rx="14" fill="#12161d" stroke="#ffb454" stroke-width="2" opacity="0.35"/>
<g stroke="#ffb454" stroke-width="3" fill="none" stroke-linecap="round">
<line x1="210" y1="230" x2="320" y2="230"/><line x1="210" y1="260" x2="380" y2="260"/>
<line x1="210" y1="290" x2="290" y2="290"/><line x1="210" y1="320" x2="360" y2="320"/>
<line x1="210" y1="350" x2="260" y2="350"/><line x1="210" y1="380" x2="350" y2="380"/>
<line x1="210" y1="410" x2="300" y2="410"/>
</g>
<g stroke="#ffb454" stroke-width="3" fill="none" stroke-linecap="round" opacity="0.6">
<line x1="500" y1="190" x2="610" y2="190"/><line x1="500" y1="220" x2="680" y2="220"/>
<line x1="500" y1="250" x2="580" y2="250"/><line x1="500" y1="280" x2="660" y2="280"/>
<line x1="500" y1="310" x2="560" y2="310"/><line x1="500" y1="340" x2="640" y2="340"/>
</g>
<g stroke="#ffb454" stroke-width="3" fill="none" stroke-linecap="round" opacity="0.35">
<line x1="790" y1="270" x2="900" y2="270"/><line x1="790" y1="300" x2="960" y2="300"/>
<line x1="790" y1="330" x2="870" y2="330"/><line x1="790" y1="360" x2="940" y2="360"/>
</g>
</g>
<text x="60" y="580" fill="#e9eef5" font-family="Georgia, serif" font-size="54" font-weight="700">Learn to Code</text>
<text x="60" y="630" fill="#ffb454" font-family="monospace" font-size="16" letter-spacing="4">// С НУЛЯ</text>
</svg>